<svg xmlns="http://www.w3.org/2000/svg" xmlns:xlink="http://www.w3.org/1999/xlink" xmlns:lucid="lucid" width="1677.31" height="1477.33"><g transform="translate(-760 -379.9999999999999)" lucid:page-tab-id="aoOKvGsCNWQV"><path d="M942.78 405a5 5 0 0 1 5-5H2255a5 5 0 0 1 5 5v1427.33a5 5 0 0 1-5 5H947.78a5 5 0 0 1-5-5z" stroke="#333" fill-opacity="0"/><use xlink:href="#a" transform="matrix(1,0,0,1,950.7771404371332,407.9999999999999) translate(581.3703703703703 15.11111111111111)"/><path d="M2379.75 659.75c0 10.9-8.84 19.75-19.75 19.75-10.9 0-19.75-8.84-19.75-19.75 0-10.9 8.84-19.75 19.75-19.75 10.9 0 19.75 8.84 19.75 19.75z" stroke="#333" fill="#fff"/><path d="M2360 679.5v50.3a17.25 17.25 0 0 0 2.67 9.23L2400 798m-40-63.2l-40 63.2m0-98.75h80" stroke="#333" fill="none"/><path d="M2320 645a5 5 0 0 1 5-5h70a5 5 0 0 1 5 5v170a5 5 0 0 1-5 5h-70a5 5 0 0 1-5-5z" fill="none"/><use xlink:href="#b" transform="matrix(1,0,0,1,2240,798) translate(65.30864197530863 14.888888888888888)"/><path d="M839.75 939.75c0 10.9-8.84 19.75-19.75 19.75-10.9 0-19.75-8.84-19.75-19.75 0-10.9 8.84-19.75 19.75-19.75 10.9 0 19.75 8.84 19.75 19.75z" stroke="#333" fill="#fff"/><path d="M820 959.5v50.3a17.25 17.25 0 0 0 2.67 9.22L860 1078m-40-63.2l-40 63.2m0-98.75h80" stroke="#333" fill="none"/><path d="M780 925a5 5 0 0 1 5-5h70a5 5 0 0 1 5 5v170a5 5 0 0 1-5 5h-70a5 5 0 0 1-5-5z" fill="none"/><use xlink:href="#c" transform="matrix(1,0,0,1,700,1077.9989633254834) translate(89.45679012345678 14.888888888888888)"/><path d="M1364.06 1232c0 33.14-35.82 60-80 60-44.2 0-80-26.86-80-60s35.8-60 80-60c44.18 0 80 26.86 80 60z" stroke="#fff" fill="#3278cc"/><use xlink:href="#d" transform="matrix(1,0,0,1,1204.0552368852332,1171.9989633254836) translate(19.387716049382714 62.97222222222222)"/><use xlink:href="#e" transform="matrix(1,0,0,1,1204.0552368852332,1171.9989633254836) translate(79.53586419753086 62.97222222222222)"/><path d="M2359.05 719.34L1352.9 1199.87M2359.04 719.34l3.17-1.5" stroke="#3a414a" fill="none"/><path d="M1353.13 1200.32l-.36.17-.48-.63-.18-.18.58-.3z" stroke="#3a414a" stroke-width=".05" fill="#3a414a"/><path d="M819.93 999.2l383.2 232.54M819.94 999.2l-3-1.83" stroke="#3a414a" fill="none"/><path d="M1203.57 1231.42v1.17l-.7-.44.5-.86z" stroke="#3a414a" stroke-width=".05" fill="#3a414a"/><path d="M1364.06 640c0 33.14-35.82 60-80 60-44.2 0-80-26.86-80-60s35.8-60 80-60c44.18 0 80 26.86 80 60z" stroke="#fff" fill="#3278cc"/><use xlink:href="#f" transform="matrix(1,0,0,1,1204.0552368852332,579.9989633254831) translate(52.40006172839506 51.72222222222222)"/><use xlink:href="#g" transform="matrix(1,0,0,1,1204.0552368852332,579.9989633254831) translate(25.313641975308634 73.05555555555556)"/><path d="M2359 718.8l-994.45-72.07M2359 718.8l3.5.26" stroke="#3a414a" fill="none"/><path d="M1364.6 646.23l-.08 1-.55-.04.16-1z" stroke="#3a414a" stroke-width=".05" fill="#3a414a"/><path d="M1364.06 936c0 33.14-35.82 60-80 60-44.2 0-80-26.86-80-60s35.8-60 80-60c44.18 0 80 26.86 80 60z" stroke="#fff" fill="#3278cc"/><use xlink:href="#d" transform="matrix(1,0,0,1,1204.0552368852332,875.9989633254834) translate(9.95561728395061 62.97222222222222)"/><use xlink:href="#h" transform="matrix(1,0,0,1,1204.0552368852332,875.9989633254834) translate(70.10376543209875 62.97222222222222)"/><path d="M2359 719.04L1365.05 935.9M2359 719.04l3.43-.75" stroke="#3a414a" fill="none"/><path d="M1365.16 936.38l-.62.13.02-.5v-.5l.4-.1z" stroke="#3a414a" stroke-width=".05" fill="#3a414a"/><path d="M1364.06 788c0 33.14-35.82 60-80 60-44.2 0-80-26.86-80-60s35.8-60 80-60c44.18 0 80 26.86 80 60z" stroke="#fff" fill="#3278cc"/><use xlink:href="#d" transform="matrix(1,0,0,1,1204.0552368852332,727.9989633254831) translate(11.486481481481471 62.97222222222222)"/><use xlink:href="#i" transform="matrix(1,0,0,1,1204.0552368852332,727.9989633254831) translate(71.63462962962961 62.97222222222222)"/><path d="M2359 718.95l-994.17 64.7M2359 718.95l3.5-.23" stroke="#3a414a" fill="none"/><path d="M1364.88 784.14l-.5.03-.1-1 .53-.03z" stroke="#3a414a" stroke-width=".05" fill="#3a414a"/><path d="M1364.06 1380c0 33.14-35.82 60-80 60-44.2 0-80-26.86-80-60s35.8-60 80-60c44.18 0 80 26.86 80 60z" stroke="#fff" fill="#3278cc"/><use xlink:href="#d" transform="matrix(1,0,0,1,1204.0552368852332,1319.9989633254836) translate(32.67166666666666 62.97222222222222)"/><use xlink:href="#j" transform="matrix(1,0,0,1,1204.0552368852332,1319.9989633254836) translate(92.8198148148148 62.97222222222222)"/><path d="M2359.08 719.2l-994.1 660.52M2359.07 719.2l2.93-1.93" stroke="#3a414a" fill="none"/><path d="M1365.26 1380.13l-.72.48.02-.6V1379.4l.15-.1z" stroke="#3a414a" stroke-width=".05" fill="#3a414a"/><path d="M819.86 999.28l383.34 380.37M819.86 999.3l-2.5-2.48" stroke="#3a414a" fill="none"/><path d="M1203.58 1379.32l-.02.67v.72l-.72-.73.7-.72z" stroke="#3a414a" stroke-width=".05" fill="#3a414a"/><path d="M1364.06 1084c0 33.14-35.82 60-80 60-44.2 0-80-26.86-80-60s35.8-60 80-60c44.18 0 80 26.86 80 60z" stroke="#fff" fill="#3278cc"/><use xlink:href="#k" transform="matrix(1,0,0,1,1204.0552368852332,1023.9989633254834) translate(16.91858024691357 51.72222222222222)"/><use xlink:href="#l" transform="matrix(1,0,0,1,1204.0552368852332,1023.9989633254834) translate(96.72104938271606 51.72222222222222)"/><use xlink:href="#m" transform="matrix(1,0,0,1,1204.0552368852332,1023.9989633254834) translate(27.684012345679008 73.05555555555556)"/><use xlink:href="#n" transform="matrix(1,0,0,1,1204.0552368852332,1023.9989633254834) translate(52.37537037037037 73.05555555555556)"/><path d="M2359.03 719.1l-994 364.73M2359.02 719.1l3.3-1.2" stroke="#3a414a" fill="none"/><path d="M1365.2 1084.3l-.66.24.02-.53v-.53l.3-.12z" stroke="#3a414a" stroke-width=".05" fill="#3a414a"/><path d="M820 999.04l383.07 84.85M820 999.04l-3.43-.76" stroke="#3a414a" fill="none"/><path d="M1203.57 1083.5v1l-.62-.12.2-.98z" stroke="#3a414a" stroke-width=".05" fill="#3a414a"/><defs><path fill="#333" d="M178-136c88 48 22 151-73 140C49-3 12-15 4-64l51-9c1 50 111 53 115 3-16-63-132-20-133-112 0-93 190-91 199-10l-50 12c-4-41-93-50-97-4 7 38 59 32 89 48" id="o"/><path fill="#333" d="M50-224l7-37h49l-7 37H50zM6 0l37-190h49L55 0H6" id="p"/><path fill="#333" d="M45-171c29-32 103-29 114 14 2-11 5-23 8-33h47L176-2c-3 70-92 96-155 64C9 56 1 42-1 25l50-5c2 28 48 27 63 11 13-13 20-45 21-66-13 20-30 35-62 36-87 3-60-134-26-172zM94-35c41-3 55-43 55-86 0-24-12-39-35-39-43 0-51 48-51 90 0 22 9 37 31 35" id="q"/><path fill="#333" d="M250-142C247-53 197 0 108 0H6l48-248c105-5 200 3 196 106zm-49 2c1-57-42-72-103-68L66-40c84 6 135-22 135-100" id="r"/><path fill="#333" d="M114-194c63-2 87 48 72 110H63c-3 28 1 55 31 54 21-1 32-13 37-29l44 13C160-14 137 4 91 4 41 4 11-22 11-73c0-71 33-119 103-121zm30 77c14-47-50-61-67-22-3 6-6 13-8 22h75" id="s"/><path fill="#333" d="M144-137c-1-29-70-35-71-2 16 41 103 10 103 80C176 9 79 16 32-9 18-17 9-31 4-48l44-6c3 32 80 36 82 1-15-42-103-11-103-82 0-77 157-79 161-8" id="t"/><path fill="#333" d="M156-122c2-23-7-37-28-37-47 0-58 44-58 89 0 24 12 40 36 40 43 0 47-49 50-92zM-8 75l50-265h48c0 10-3 24-3 30 22-50 127-45 121 29-6 73-21 135-92 135-29 0-46-14-55-35L41 75H-8" id="u"/><path fill="#333" d="M151-194c95 0 34 128 28 194h-49l25-134c0-29-45-25-59-9C67-111 69-48 56 0H6l36-190h47l-4 32c15-20 33-36 66-36" id="v"/><path fill="#333" d="M166-52c-4 17 5 29 24 23l-3 27c-30 11-74 1-67-34C105-15 91 4 56 4 23 4 3-15 2-49c0-64 63-67 128-67 10-22 3-53-29-45-13 3-22 10-25 24l-46-5c5-64 156-77 153 0-1 33-11 60-17 90zM97-88c-44-9-64 57-19 57 31 0 42-28 47-57H97" id="w"/><g id="a"><use transform="matrix(0.06172839506172839,0,0,0.06172839506172839,0,0)" xlink:href="#o"/><use transform="matrix(0.06172839506172839,0,0,0.06172839506172839,14.814814814814813,0)" xlink:href="#p"/><use transform="matrix(0.06172839506172839,0,0,0.06172839506172839,20.98765432098765,0)" xlink:href="#q"/><use transform="matrix(0.06172839506172839,0,0,0.06172839506172839,34.50617283950617,0)" xlink:href="#r"/><use transform="matrix(0.06172839506172839,0,0,0.06172839506172839,50.49382716049382,0)" xlink:href="#s"/><use transform="matrix(0.06172839506172839,0,0,0.06172839506172839,62.8395061728395,0)" xlink:href="#t"/><use transform="matrix(0.06172839506172839,0,0,0.06172839506172839,75.18518518518518,0)" xlink:href="#u"/><use transform="matrix(0.06172839506172839,0,0,0.06172839506172839,88.7037037037037,0)" xlink:href="#s"/><use transform="matrix(0.06172839506172839,0,0,0.06172839506172839,101.04938271604938,0)" xlink:href="#v"/><use transform="matrix(0.06172839506172839,0,0,0.06172839506172839,114.5679012345679,0)" xlink:href="#t"/><use transform="matrix(0.06172839506172839,0,0,0.06172839506172839,126.91358024691357,0)" xlink:href="#w"/></g><path fill="#333" d="M187 0l-14-72H61L19 0h-37l149-248h38L221 0h-34zm-19-99l-22-123L76-99h92" id="x"/><path fill="#333" d="M133-28C103 26-5 8 13-77c13-62 24-115 90-117 29-1 46 15 56 35l19-102h32L160 0h-30zM45-64c-2 27 10 43 35 43 54-1 69-50 69-103 0-29-15-46-42-46-53-1-58 58-62 106" id="y"/><path fill="#333" d="M248-111c6-24 9-61-24-58-72 9-57 108-77 169h-31l26-142c3-37-50-30-64-10C52-115 50-51 37 0H6l36-190h30c-1 10-6 24-4 32 13-43 101-52 105 5 13-22 29-41 61-41 90 0 28 129 23 194h-31" id="z"/><path fill="#333" d="M50-231l6-30h32l-6 30H50zM6 0l37-190h31L37 0H6" id="A"/><path fill="#333" d="M67-158c22-48 132-52 116 29L158 0h-32l25-140c3-38-53-32-70-12C52-117 51-52 38 0H6l36-190h30" id="B"/><path fill="#333" d="M55-144c13 50 104 24 104 88C159 21 15 23 1-39l26-10c6 40 102 42 102-4-13-50-104-23-104-87 0-71 143-71 148-8l-29 4c-5-35-85-37-89 0" id="C"/><path fill="#333" d="M51-54c-9 22 5 41 31 30L79-1C43 14 10-4 19-52l22-115H19l5-23h22l19-43h21l-9 43h35l-4 23H73" id="D"/><path fill="#333" d="M66-151c12-25 30-51 66-40l-6 26C45-176 58-65 38 0H6l36-190h30" id="E"/><path fill="#333" d="M165-48c-4 18 1 34 23 27l-3 20c-29 8-62 0-52-35h-2C116-14 99 4 63 4 30 4 8-16 8-49c0-68 71-67 138-67 10-26 0-56-31-54-26 1-42 9-47 31l-32-5c8-67 160-71 144 15-5 28-9 54-15 81zM42-50c3 52 80 24 89-6 7-12 7-24 11-38-47 1-103-4-100 44" id="F"/><path fill="#333" d="M30-147c31-64 166-65 159 27C183-49 158 1 86 4 9 8 1-88 30-147zM88-20c53 0 68-48 68-100 0-31-11-51-44-50-52 1-68 46-68 97 0 32 13 53 44 53" id="G"/><g id="b"><use transform="matrix(0.04938271604938272,0,0,0.04938271604938272,0,0)" xlink:href="#x"/><use transform="matrix(0.04938271604938272,0,0,0.04938271604938272,11.851851851851853,0)" xlink:href="#y"/><use transform="matrix(0.04938271604938272,0,0,0.04938271604938272,21.7283950617284,0)" xlink:href="#z"/><use transform="matrix(0.04938271604938272,0,0,0.04938271604938272,36.49382716049384,0)" xlink:href="#A"/><use transform="matrix(0.04938271604938272,0,0,0.04938271604938272,40.39506172839507,0)" xlink:href="#B"/><use transform="matrix(0.04938271604938272,0,0,0.04938271604938272,50.271604938271615,0)" xlink:href="#A"/><use transform="matrix(0.04938271604938272,0,0,0.04938271604938272,54.17283950617284,0)" xlink:href="#C"/><use transform="matrix(0.04938271604938272,0,0,0.04938271604938272,63.061728395061735,0)" xlink:href="#D"/><use transform="matrix(0.04938271604938272,0,0,0.04938271604938272,68,0)" xlink:href="#E"/><use transform="matrix(0.04938271604938272,0,0,0.04938271604938272,73.87654320987654,0)" xlink:href="#F"/><use transform="matrix(0.04938271604938272,0,0,0.04938271604938272,83.75308641975309,0)" xlink:href="#y"/><use transform="matrix(0.04938271604938272,0,0,0.04938271604938272,93.62962962962963,0)" xlink:href="#G"/><use transform="matrix(0.04938271604938272,0,0,0.04938271604938272,103.50617283950618,0)" xlink:href="#E"/></g><path fill="#333" d="M62-99C39-31 123 0 170-40s38-139 58-208h34C234-144 253 4 115 4 49 4 18-43 31-112l26-136h34" id="H"/><path fill="#333" d="M67 3c-93-2-31-127-26-193h32L48-50c-3 39 53 32 70 12 30-34 30-101 43-152h32L157 0h-30c1-10 6-24 4-33-14 20-29 37-64 36" id="I"/><path fill="#333" d="M166-48c-4 18 1 34 23 27l-3 20c-29 8-62 0-52-35h-2C117-14 100 4 64 4 31 4 9-16 9-49c0-68 71-67 138-67 10-26 0-56-31-54-26 1-42 9-47 31l-32-5c8-67 160-71 144 15-5 28-9 54-15 81zM43-50c3 52 80 24 89-6 7-12 7-24 11-38-47 1-103-4-100 44zm52-161c10-23 31-35 45-54h38l-1 5-66 49H95" id="J"/><g id="c"><use transform="matrix(0.04938271604938272,0,0,0.04938271604938272,0,0)" xlink:href="#H"/><use transform="matrix(0.04938271604938272,0,0,0.04938271604938272,12.790123456790125,0)" xlink:href="#C"/><use transform="matrix(0.04938271604938272,0,0,0.04938271604938272,21.679012345679013,0)" xlink:href="#I"/><use transform="matrix(0.04938271604938272,0,0,0.04938271604938272,31.555555555555557,0)" xlink:href="#J"/><use transform="matrix(0.04938271604938272,0,0,0.04938271604938272,41.4320987654321,0)" xlink:href="#E"/><use transform="matrix(0.04938271604938272,0,0,0.04938271604938272,47.308641975308646,0)" xlink:href="#A"/><use transform="matrix(0.04938271604938272,0,0,0.04938271604938272,51.20987654320988,0)" xlink:href="#G"/></g><path fill="#fff" d="M222 0l43-216c-8 16-17 34-26 49L143 0h-22L81-216 41 0H11l48-248h42l38 208 116-208h45L252 0h-30" id="K"/><path fill="#fff" d="M165-48c-4 18 1 34 23 27l-3 20c-29 8-62 0-52-35h-2C116-14 99 4 63 4 30 4 8-16 8-49c0-68 71-67 138-67 10-26 0-56-31-54-26 1-42 9-47 31l-32-5c8-67 160-71 144 15-5 28-9 54-15 81zM42-50c3 52 80 24 89-6 7-12 7-24 11-38-47 1-103-4-100 44" id="L"/><path fill="#fff" d="M67-158c22-48 132-52 116 29L158 0h-32l25-140c3-38-53-32-70-12C52-117 51-52 38 0H6l36-190h30" id="M"/><path fill="#fff" d="M51-54c-9 22 5 41 31 30L79-1C43 14 10-4 19-52l22-115H19l5-23h22l19-43h21l-9 43h35l-4 23H73" id="N"/><path fill="#fff" d="M111-194c62-3 86 47 72 106H45c-7 38 6 69 45 68 27-1 43-14 53-32l24 11C152-15 129 4 87 4 38 3 12-23 12-71c0-70 32-119 99-123zm44 81c14-66-71-72-95-28-4 8-8 17-11 28h106" id="O"/><path fill="#fff" d="M66-151c12-25 30-51 66-40l-6 26C45-176 58-65 38 0H6l36-190h30" id="P"/><g id="d"><use transform="matrix(0.04938271604938272,0,0,0.04938271604938272,0,0)" xlink:href="#K"/><use transform="matrix(0.04938271604938272,0,0,0.04938271604938272,14.765432098765434,0)" xlink:href="#L"/><use transform="matrix(0.04938271604938272,0,0,0.04938271604938272,24.641975308641978,0)" xlink:href="#M"/><use transform="matrix(0.04938271604938272,0,0,0.04938271604938272,34.51851851851852,0)" xlink:href="#N"/><use transform="matrix(0.04938271604938272,0,0,0.04938271604938272,39.45679012345679,0)" xlink:href="#O"/><use transform="matrix(0.04938271604938272,0,0,0.04938271604938272,49.333333333333336,0)" xlink:href="#P"/></g><path fill="#fff" d="M62-99C39-31 123 0 170-40s38-139 58-208h34C234-144 253 4 115 4 49 4 18-43 31-112l26-136h34" id="Q"/><path fill="#fff" d="M55-144c13 50 104 24 104 88C159 21 15 23 1-39l26-10c6 40 102 42 102-4-13-50-104-23-104-87 0-71 143-71 148-8l-29 4c-5-35-85-37-89 0" id="R"/><path fill="#fff" d="M67 3c-93-2-31-127-26-193h32L48-50c-3 39 53 32 70 12 30-34 30-101 43-152h32L157 0h-30c1-10 6-24 4-33-14 20-29 37-64 36" id="S"/><path fill="#fff" d="M166-48c-4 18 1 34 23 27l-3 20c-29 8-62 0-52-35h-2C117-14 100 4 64 4 31 4 9-16 9-49c0-68 71-67 138-67 10-26 0-56-31-54-26 1-42 9-47 31l-32-5c8-67 160-71 144 15-5 28-9 54-15 81zM43-50c3 52 80 24 89-6 7-12 7-24 11-38-47 1-103-4-100 44zm52-161c10-23 31-35 45-54h38l-1 5-66 49H95" id="T"/><path fill="#fff" d="M50-231l6-30h32l-6 30H50zM6 0l37-190h31L37 0H6" id="U"/><path fill="#fff" d="M30-147c31-64 166-65 159 27C183-49 158 1 86 4 9 8 1-88 30-147zM88-20c53 0 68-48 68-100 0-31-11-51-44-50-52 1-68 46-68 97 0 32 13 53 44 53" id="V"/><g id="e"><use transform="matrix(0.04938271604938272,0,0,0.04938271604938272,0,0)" xlink:href="#Q"/><use transform="matrix(0.04938271604938272,0,0,0.04938271604938272,12.790123456790125,0)" xlink:href="#R"/><use transform="matrix(0.04938271604938272,0,0,0.04938271604938272,21.679012345679013,0)" xlink:href="#S"/><use transform="matrix(0.04938271604938272,0,0,0.04938271604938272,31.555555555555557,0)" xlink:href="#T"/><use transform="matrix(0.04938271604938272,0,0,0.04938271604938272,41.4320987654321,0)" xlink:href="#P"/><use transform="matrix(0.04938271604938272,0,0,0.04938271604938272,47.308641975308646,0)" xlink:href="#U"/><use transform="matrix(0.04938271604938272,0,0,0.04938271604938272,51.20987654320988,0)" xlink:href="#V"/></g><g id="f"><use transform="matrix(0.04938271604938272,0,0,0.04938271604938272,0,0)" xlink:href="#K"/><use transform="matrix(0.04938271604938272,0,0,0.04938271604938272,14.765432098765434,0)" xlink:href="#L"/><use transform="matrix(0.04938271604938272,0,0,0.04938271604938272,24.641975308641978,0)" xlink:href="#M"/><use transform="matrix(0.04938271604938272,0,0,0.04938271604938272,34.51851851851852,0)" xlink:href="#N"/><use transform="matrix(0.04938271604938272,0,0,0.04938271604938272,39.45679012345679,0)" xlink:href="#O"/><use transform="matrix(0.04938271604938272,0,0,0.04938271604938272,49.333333333333336,0)" xlink:href="#P"/></g><path fill="#fff" d="M187 0l-14-72H61L19 0h-37l149-248h38L221 0h-34zm-19-99l-22-123L76-99h92" id="W"/><path fill="#fff" d="M133-28C103 26-5 8 13-77c13-62 24-115 90-117 29-1 46 15 56 35l19-102h32L160 0h-30zM45-64c-2 27 10 43 35 43 54-1 69-50 69-103 0-29-15-46-42-46-53-1-58 58-62 106" id="X"/><path fill="#fff" d="M248-111c6-24 9-61-24-58-72 9-57 108-77 169h-31l26-142c3-37-50-30-64-10C52-115 50-51 37 0H6l36-190h30c-1 10-6 24-4 32 13-43 101-52 105 5 13-22 29-41 61-41 90 0 28 129 23 194h-31" id="Y"/><g id="g"><use transform="matrix(0.04938271604938272,0,0,0.04938271604938272,0,0)" xlink:href="#W"/><use transform="matrix(0.04938271604938272,0,0,0.04938271604938272,11.851851851851853,0)" xlink:href="#X"/><use transform="matrix(0.04938271604938272,0,0,0.04938271604938272,21.7283950617284,0)" xlink:href="#Y"/><use transform="matrix(0.04938271604938272,0,0,0.04938271604938272,36.49382716049384,0)" xlink:href="#U"/><use transform="matrix(0.04938271604938272,0,0,0.04938271604938272,40.39506172839507,0)" xlink:href="#M"/><use transform="matrix(0.04938271604938272,0,0,0.04938271604938272,50.271604938271615,0)" xlink:href="#U"/><use transform="matrix(0.04938271604938272,0,0,0.04938271604938272,54.17283950617284,0)" xlink:href="#R"/><use transform="matrix(0.04938271604938272,0,0,0.04938271604938272,63.061728395061735,0)" xlink:href="#N"/><use transform="matrix(0.04938271604938272,0,0,0.04938271604938272,68,0)" xlink:href="#P"/><use transform="matrix(0.04938271604938272,0,0,0.04938271604938272,73.87654320987654,0)" xlink:href="#L"/><use transform="matrix(0.04938271604938272,0,0,0.04938271604938272,83.75308641975309,0)" xlink:href="#X"/><use transform="matrix(0.04938271604938272,0,0,0.04938271604938272,93.62962962962963,0)" xlink:href="#V"/><use transform="matrix(0.04938271604938272,0,0,0.04938271604938272,103.50617283950618,0)" xlink:href="#P"/></g><path fill="#fff" d="M248-139C247-14 144 9 11 0l48-248c105-6 190 8 189 109zm-34 0c1-70-52-87-126-82L50-27c98 7 163-21 164-112" id="Z"/><path fill="#fff" d="M67-162c32-53 139-36 121 50C175-51 163 2 97 4 68 4 52-11 42-31 38 6 28 39 22 75H-9l50-265h29c-1 10 0 20-3 28zm89 36c0-26-10-43-35-43-54 0-67 50-69 103-1 29 14 45 42 46 53 0 62-58 62-106" id="aa"/><g id="h"><use transform="matrix(0.04938271604938272,0,0,0.04938271604938272,0,0)" xlink:href="#Z"/><use transform="matrix(0.04938271604938272,0,0,0.04938271604938272,12.790123456790125,0)" xlink:href="#O"/><use transform="matrix(0.04938271604938272,0,0,0.04938271604938272,22.66666666666667,0)" xlink:href="#R"/><use transform="matrix(0.04938271604938272,0,0,0.04938271604938272,31.555555555555557,0)" xlink:href="#aa"/><use transform="matrix(0.04938271604938272,0,0,0.04938271604938272,41.4320987654321,0)" xlink:href="#O"/><use transform="matrix(0.04938271604938272,0,0,0.04938271604938272,51.308641975308646,0)" xlink:href="#M"/><use transform="matrix(0.04938271604938272,0,0,0.04938271604938272,61.18518518518519,0)" xlink:href="#R"/><use transform="matrix(0.04938271604938272,0,0,0.04938271604938272,70.07407407407408,0)" xlink:href="#L"/></g><path fill="#fff" d="M125-24c46 0 70-25 89-51l25 16C214-24 183 4 123 4 8 4-5-146 60-208c32-50 158-61 191-5 5 7 9 14 11 22l-32 10c-9-28-33-43-69-43-74 0-108 51-108 125 0 46 24 75 72 75" id="ab"/><path fill="#fff" d="M103-194c29 0 47 14 56 36 2-11 5-23 8-32h30L160-5C157 61 82 97 21 62 9 55 4 45 1 30l28-7c7 42 83 31 92-3 4-16 9-38 13-55-13 20-29 36-62 36-40 0-60-25-60-64 0-71 23-131 91-131zm4 24c-53 0-58 54-61 104-2 27 10 44 36 44 49 0 65-50 67-102 1-29-15-46-42-46" id="ac"/><g id="i"><use transform="matrix(0.04938271604938272,0,0,0.04938271604938272,0,0)" xlink:href="#ab"/><use transform="matrix(0.04938271604938272,0,0,0.04938271604938272,12.790123456790125,0)" xlink:href="#L"/><use transform="matrix(0.04938271604938272,0,0,0.04938271604938272,22.66666666666667,0)" xlink:href="#N"/><use transform="matrix(0.04938271604938272,0,0,0.04938271604938272,27.604938271604947,0)" xlink:href="#O"/><use transform="matrix(0.04938271604938272,0,0,0.04938271604938272,37.48148148148149,0)" xlink:href="#ac"/><use transform="matrix(0.04938271604938272,0,0,0.04938271604938272,47.35802469135803,0)" xlink:href="#V"/><use transform="matrix(0.04938271604938272,0,0,0.04938271604938272,57.23456790123457,0)" xlink:href="#P"/><use transform="matrix(0.04938271604938272,0,0,0.04938271604938272,63.111111111111114,0)" xlink:href="#U"/><use transform="matrix(0.04938271604938272,0,0,0.04938271604938272,67.01234567901236,0)" xlink:href="#L"/></g><path fill="#fff" d="M14 0l48-248h34L48 0H14" id="ad"/><g id="j"><use transform="matrix(0.04938271604938272,0,0,0.04938271604938272,0,0)" xlink:href="#ad"/><use transform="matrix(0.04938271604938272,0,0,0.04938271604938272,4.938271604938272,0)" xlink:href="#N"/><use transform="matrix(0.04938271604938272,0,0,0.04938271604938272,9.876543209876544,0)" xlink:href="#O"/><use transform="matrix(0.04938271604938272,0,0,0.04938271604938272,19.75308641975309,0)" xlink:href="#Y"/></g><g id="k"><use transform="matrix(0.04938271604938272,0,0,0.04938271604938272,0,0)" xlink:href="#K"/><use transform="matrix(0.04938271604938272,0,0,0.04938271604938272,14.765432098765434,0)" xlink:href="#V"/><use transform="matrix(0.04938271604938272,0,0,0.04938271604938272,24.641975308641978,0)" xlink:href="#M"/><use transform="matrix(0.04938271604938272,0,0,0.04938271604938272,34.51851851851852,0)" xlink:href="#U"/><use transform="matrix(0.04938271604938272,0,0,0.04938271604938272,38.41975308641975,0)" xlink:href="#N"/><use transform="matrix(0.04938271604938272,0,0,0.04938271604938272,43.358024691358025,0)" xlink:href="#V"/><use transform="matrix(0.04938271604938272,0,0,0.04938271604938272,53.23456790123457,0)" xlink:href="#P"/><use transform="matrix(0.04938271604938272,0,0,0.04938271604938272,59.111111111111114,0)" xlink:href="#L"/><use transform="matrix(0.04938271604938272,0,0,0.04938271604938272,68.98765432098766,0)" xlink:href="#P"/></g><path fill="#fff" d="M16 0l37-190h31L47 0H16zm30-211c10-23 31-35 45-54h38l-1 5-66 49H46" id="ae"/><path fill="#fff" d="M89 0H52L20-190h33L74-25l89-165h34" id="af"/><g id="l"><use transform="matrix(0.04938271604938272,0,0,0.04938271604938272,0,0)" xlink:href="#M"/><use transform="matrix(0.04938271604938272,0,0,0.04938271604938272,9.876543209876544,0)" xlink:href="#ae"/><use transform="matrix(0.04938271604938272,0,0,0.04938271604938272,14.814814814814817,0)" xlink:href="#af"/><use transform="matrix(0.04938271604938272,0,0,0.04938271604938272,23.703703703703706,0)" xlink:href="#O"/><use transform="matrix(0.04938271604938272,0,0,0.04938271604938272,33.580246913580254,0)" xlink:href="#U"/><use transform="matrix(0.04938271604938272,0,0,0.04938271604938272,37.48148148148149,0)" xlink:href="#R"/></g><g id="m"><use transform="matrix(0.04938271604938272,0,0,0.04938271604938272,0,0)" xlink:href="#X"/><use transform="matrix(0.04938271604938272,0,0,0.04938271604938272,9.876543209876544,0)" xlink:href="#L"/></g><g id="n"><use transform="matrix(0.04938271604938272,0,0,0.04938271604938272,0,0)" xlink:href="#Z"/><use transform="matrix(0.04938271604938272,0,0,0.04938271604938272,12.790123456790125,0)" xlink:href="#O"/><use transform="matrix(0.04938271604938272,0,0,0.04938271604938272,22.66666666666667,0)" xlink:href="#R"/><use transform="matrix(0.04938271604938272,0,0,0.04938271604938272,31.555555555555557,0)" xlink:href="#aa"/><use transform="matrix(0.04938271604938272,0,0,0.04938271604938272,41.4320987654321,0)" xlink:href="#O"/><use transform="matrix(0.04938271604938272,0,0,0.04938271604938272,51.308641975308646,0)" xlink:href="#M"/><use transform="matrix(0.04938271604938272,0,0,0.04938271604938272,61.18518518518519,0)" xlink:href="#R"/><use transform="matrix(0.04938271604938272,0,0,0.04938271604938272,70.07407407407408,0)" xlink:href="#L"/></g></defs></g></svg>